<svg width="110" height="122" viewBox="0 0 110 122" xmlns="http://www.w3.org/2000/svg">
  <path d="M88.561 102.5c-.19 0-.613 1.44-.178 2.46.232.544.776.774 1.232.622.449-.15.58-.578.592-.91.042-1.119-.938-2.171-1.646-2.171zm-3.264-16.32l.143 1.58-1.363-.152v1.8l1.363-.153-.143 1.65h1.851l-.143-1.65 1.363.152v-1.8l-1.363.153.143-1.58h-1.851zm.928 6.227a.676.676 0 0 0-.668.684c0 .377.3.683.668.683a.676.676 0 0 0 .668-.683.676.676 0 0 0-.668-.684zm0 2.768a.676.676 0 0 0-.668.683c0 .378.3.684.668.684a.676.676 0 0 0 .668-.684.676.676 0 0 0-.668-.683zm0 2.807a.676.676 0 0 0-.668.683c0 .378.3.684.668.684a.676.676 0 0 0 .668-.684.676.676 0 0 0-.668-.683zm2.156.683c0 .378.299.684.667.684a.676.676 0 0 0 .668-.684.676.676 0 0 0-.668-.683.676.676 0 0 0-.667.683zm2.798 0c0 .378.299.684.668.684a.676.676 0 0 0 .667-.684.676.676 0 0 0-.667-.683.676.676 0 0 0-.668.683zm-4.954 3.075c-.571 0-1.981 2.904-.93 4.373.2.28.553.439.93.439s.73-.158.93-.439c1.051-1.469-.359-4.373-.93-4.373zm-2.336.76c-.708 0-1.688 1.053-1.646 2.172.012.332.143.76.592.91.455.152 1-.078 1.232-.621.435-1.021.012-2.46-.178-2.46zm-1.086-3.835c0 .378.298.684.667.684a.675.675 0 0 0 .668-.684.676.676 0 0 0-.668-.683.676.676 0 0 0-.667.683zm-2.73 0c0 .378.3.684.668.684a.676.676 0 0 0 .668-.684c0-.377-.3-.683-.668-.683a.676.676 0 0 0-.668.683zm-.658 0c0-.582.1-1.107.1-1.107h5.548V91.86c-2.678.47-4.82 2.54-5.458 5.215-.155.222-.658.336-1.013.296-2.047-.25-6.19-1-6.19-1.884 0-1.243.84-1.74 1.646-1.74 1.15 0 2.421.624 3.48-.912-3.767.173-.88-5.282-3.969-6.317.153 1.393.001 3.844-.486 5.14 0 0-1.107-1.187-2.35-1.634.093 1.012-.096 3.108-.547 4.062 0 0-1.316-1.222-2.682-1.679 1.26 1.83 1.217 4.443.878 6.032-.098.46.243 1.032 1.204.99 1.502-.067 6.633.16 8.859 1.072.692.284 1.285.61 1.574 1.104.236.666.82 1.698 1.537 2.227.323-1.152 1.697-2.385 2.592-2.34.267.013.563.46.624.9.08-.409.74-1.536 1.463-1.536.668 0 1.309.943 1.532 1.722.067-.5.362-1.035.63-1.035.898 0 2.029.8 2.455 2.12.345-.432 1.93-2.473 2.108-3.812H79.516s-.1-.58-.1-1.186zm7.971-6.804v5.697h5.553c-.483-2.905-2.718-5.198-5.553-5.697zm-65.521 4.69c.116.04.234.012.35-.05-.374.522-.359.866-.197 1.027.253.251.44-.21 1.08-.892.64-.68 1.084-.887.831-1.14-.162-.161-.5-.166-1.002.245a.469.469 0 0 0 .036-.357c-.212-.614-1.197-1.431-1.74-1.433-.084 0-.16.02-.228.048.239-.385.177-.675.017-.834-.176-.175-.277-.053-.474.2.026-.176-.019-.384-.185-.637-.816-1.237-5.129-5.31-6.108-5.719-.585-.245-.776.094-.776.094s-.324.21-.068.803c.428.995 4.572 5.247 5.798 6.048.252.163.454.203.624.17-.238.21-.352.317-.177.492.16.16.445.213.811-.046a.636.636 0 0 0-.038.236c.018.559.842 1.547 1.446 1.746zM11.498 84.504c-.128 0-.31.03-.443.172-.135.143-.182.365-.133.623.054.28.213.564.449.8.282.281.637.45.949.45.128 0 .308-.03.442-.172.291-.31.147-.961-.315-1.423-.283-.281-.637-.45-.949-.45zM24.911 99.62c-.004-.43-.816-1.152-1.778-1.152-1.43 0-2.05.91-2.05 1.374 0 .874.84.986 1.098 1 1.007.063 2.63-.97 2.73-1.222zm-1.232 2.181c-.38.489-.522.966-.424 1.419.12.548.66.794 1.141.794.508 0 .963-.241 1.218-.645.546-.865.57-2.78.386-2.99-.458 0-1.676.593-2.32 1.422zM11.128 81.853c-.405-.403-1.231.198-1.725-.082.219-1.232 1.087.061 1.926-.83.334-.355.155-.91-.037-1.078-.362.368-.921.24-.964.036.952-2.26-.908-4.78-2.695-4.464.35.471.455 2.109.303 2.551.68.49.194 1.646-.557 1.31-.503-.206-1.392-1.47-.37-2.36-.03-.321-.591-.4-1.188.374.437-1.42-2.244-.974-2.795-.633-.313.577-.66 3.35.703 2.855-.731.639-.638 1.214-.326 1.235.833-1.079 2.086-.204 2.303.308.35.763-.758 1.298-1.255.614-.426.171-2.018.115-2.486-.231-.25 1.848 2.254 3.683 4.418 2.633.2.038.341.609-.005.993.17.193.713.36 1.049.004.837-.89-.445-1.744.744-2.009.287.5-.27 1.37.134 1.773.647.645 1.459-.606 2.257-.656.023-.823 1.212-1.697.566-2.343zM4.425 79s-.418-.298.083-.845c.514-.534.818-.112.818-.112s.471 1.053.61 1.538c-.475-.128-1.51-.581-1.51-.581zm4.14 3.203c-.26.033-.875.583-1.184.275L5.97 81.071l.706-.752.708-.75 1.41 1.409c.308.307-.206.958-.23 1.225zm23.383 21.57c.048-.21.015-.38-.095-.49-.035-.034-.065-.054-.084-.054-.08 0-.257.22-.427.433-.142.176-.319.395-.545.634-.225.24-.433.429-.6.581-.198.18-.403.367-.405.45 0 .02.02.052.056.088.073.073.17.11.29.11.18 0 .574-.094 1.165-.723.45-.477.6-.823.645-1.029zm.009 1.68c-.308.327-.62.56-.793.679.122.125.471.346.907.346.249 0 .481-.074.693-.219.435-.72.016-1.456-.173-1.644a5.11 5.11 0 0 1-.634.838zm-4.763-4.005c-.224.21-.742 1.672-.516 2.562.097.382.307.545.662.526.367-.024.567-.216.63-.606.14-.89-.532-2.302-.776-2.482zm-.283-4.062c.012.025 2.656 2.357 3.544 3.202.209.2.497.245.79.096.167-.086.375-.184.59-.283 2.644-.937 6.994-1.043 8.589-.972.96.042 1.3-.53 1.204-.99-.313-1.504-.382-4.201.877-6.032-1.365.457-2.681 1.679-2.681 1.679-.452-.954-.64-3.05-.547-4.062-1.243.447-2.35 1.633-2.35 1.633-.488-1.295-.64-3.746-.486-5.14-3.09 1.036-.202 6.491-3.97 6.318 1.06 1.536 2.33.912 3.48.912.807 0 1.81.53 1.647 1.74-.118.876-5.172 1.968-7.205 1.968-1.42 0-2.372-.44-3.085-1.43-.343-.475-.693-.69-1.085-.63-.486.075-1.055.574-1.055 1.729 0 .817.33 2.61 1.31 2.61.687 0 .717-1.416.433-2.348zm3.267 6.293c.462-.491.624-.849.51-1.128-.166-.403-1.215-1.575-2.59-2.897-.041.29-.117.598-.182.807.926 1.227 1.271 2.544.96 3.651.112.075.182.11.223.126.356.141.8-.261 1.08-.559zm-6.686-6.673c-.007.007-.178.176-.288.404.287.001.622.05.923.132-.02-.267-.04-.63-.013-.942-.255.058-.528.303-.622.406zm46.187 8.429c.87-.398 1.498-1.475 1.663-2.53-.552.271-1.173.403-1.89.403-1.973 0-4.451-1.097-6.697-2.091 0 0-.484.407-1.287.492 2.266.697 6.72 3.169 7.047 4.754.219 1.06-.472 1.466-.472 1.466-.991-1.617-3.545-4.128-6.953-5.384.007.591-.106 1.006-.106 1.006s-.692.17-2.161-.085c1.285 1.072 4.659 4.858 5.025 7.73.244 1.918-1.096 2.006-1.096 2.006-.191-2.884-1.704-5.869-4.434-8.865 0 0-.447.701-1.042 1.056 0 0-1.009-.18-1.845-.733.322 3.806.512 8.75.312 10.246-.14 1.041-.743 1.478-.743 1.478s-.606-.437-.746-1.478c-.2-1.497-.01-6.44.313-10.246-.836.554-1.845.733-1.845.733-.595-.355-1.042-1.056-1.042-1.056-2.73 2.996-4.243 5.981-4.434 8.865 0 0-1.34-.088-1.096-2.006.366-2.872 3.74-6.658 5.025-7.73-1.47.255-2.16.085-2.16.085s-.114-.415-.107-1.006c-3.408 1.256-5.962 3.767-6.953 5.384 0 0-.691-.405-.472-1.466.327-1.585 4.78-4.057 7.047-4.754-.803-.085-1.287-.492-1.287-.492-2.246.994-4.724 2.091-6.697 2.091-.717 0-1.339-.132-1.89-.403.165 1.055.793 2.132 1.663 2.53-3.047 2.144-1.165 7.169-5.252 6.224 2.279 4.231 6.888 4.656 6.888 4.656-1.021-2.238.252-9.066 6.37-12.17-3.766 3.755-5.482 8.307-4.483 11.519.917 2.947 3.897 4.142 6.14 4.193-1.586-4.873-.608-10.455 2.685-13.969C51.255 109.742 49.272 120.027 55 122c5.728-1.973 3.743-12.258 2.331-16.112 3.293 3.514 4.27 9.096 2.684 13.969 2.244-.051 5.224-1.246 6.14-4.193 1-3.212-.716-7.764-4.482-11.518 6.118 3.103 7.39 9.931 6.37 12.17 0 0 4.61-.426 6.888-4.657-4.087.945-2.205-4.08-5.252-6.224zm-14.193-84.77a.54.54 0 0 0-.53-.548.54.54 0 0 0-.531.548c0 .303.237.55.53.55.293 0 .531-.247.531-.55zm2.678 0a.54.54 0 0 0-.53-.548.54.54 0 0 0-.53.548c0 .303.237.55.53.55a.54.54 0 0 0 .53-.55zm-4.16-14.227c0 .566.445 1.028.993 1.028s.994-.462.994-1.028c0-.566-.446-1.027-.994-1.027s-.993.461-.993 1.027zm.32-2.182h1.352l-.146-1.637 1.469.156V1.48l-1.47.157L55.677 0h-1.353l.146 1.637-1.47-.157v1.295l1.47-.156-.146 1.637zm-1.516 16.409a.54.54 0 0 0-.531-.548.54.54 0 0 0-.53.548c0 .303.237.55.53.55a.541.541 0 0 0 .531-.55zm-3.188 2.032c.144.052.31.08.506.08h9.747c.197 0 .363-.028.506-.08.314-.113.506-.35.58-.728H49.04c.074.378.265.615.58.728zm.536-2.032a.54.54 0 0 0-.53-.548.54.54 0 0 0-.532.548c0 .303.239.55.531.55a.54.54 0 0 0 .531-.55zm10.66 0a.54.54 0 0 0-.53-.548.54.54 0 0 0-.53.548c0 .303.237.55.53.55a.54.54 0 0 0 .53-.55zm.638-1.3c.275-.342 1.64-2.99 1.64-5.662 0-2.405-3.016-3.73-4.81-3.79-.208 3.436-1.543 8.83-3.284 8.83-1.647 0-3.079-5.363-3.284-8.83-1.794.06-4.81 1.385-4.81 3.79 0 2.673 1.365 5.32 1.64 5.662h12.908zM55 17.036c.82 0 1.879-3.422 2.15-6.66 0-.656-.82-1.659-2.15-1.685-1.33.026-2.15 1.03-2.15 1.685.238 3.02 1.343 6.66 2.15 6.66zM28.942 34.503c-1.59 2.192.61 4.591.745 4.757.096.117.178.064.163-.067-.012-.113 1.145-3.493 7.801-1.713.142.038.23.041.096-.097-1.23-.977-2.688-3.166-3.16-4.927 0 0-4.054-.145-5.645 2.047zm3.569-.458c0-.612.889-.781 1.4-.781 0 0 .224.59.449.918-.519-.232-1.239-.256-1.85-.137zm3.533-2.86c-.443 0-.608.282-.464.77 1.53 5.167 5.7 6.392 7.345 8.63 0 0-.011-.698.752-2.36.52.854 1.928 2.456 2.843 2.66-.219-.46-.479-2.28-.276-3.502 2.16 1.894 4.824 2.267 6.253 1.174-1.217.047-2.801-1.31-3.6-2.515 1.115.258 2.648-.008 2.964-.329-.703-.172-1.557-.797-2.07-1.391.79-.055 2.504-.704 2.995-1.62-.688.157-1.707-.124-2.371-.476.506-.274 1.767-1.63 2.07-2.819-1.792.88-4.619 1.757-8.807 1.757l-7.634.02zm4.623 2.354c-1.184.47-1.777 1.105-1.777 1.105l-.75-1.235c-.181-.3-.238-.668.374-.668h3.67c0 .25-.333.328-1.517.798zm-12.53 8.406c.383.51 1.467 2.064 3.845.674a196.674 196.674 0 0 0 3.604-2.148s-.372.718-.09 1.578c.017.05.072.048.094-.003.237-.557 2.302-2.169 4.935-2.392-.965-.845-2.025-1.599-2.025-1.599-1.125.182-3.305.953-6.126 2.789-2.821 1.835-4.12 1.069-4.175 1.034-.054-.034-.13-.023-.062.067zm33.695 58.606c.407-.13.746-.337.921-.57-1.822-.08-3.326-1.655-3.877-2.628-.605 1.004-1.685 1.787-1.685 1.787-.77-.203-1.82-1.043-2.191-1.685-.37.642-1.422 1.482-2.191 1.685 0 0-1.08-.783-1.686-1.787-.55.973-2.055 2.549-3.877 2.628.175.233.515.44.921.57.272.087.573.141.877.141.32 0 .643-.058.932-.194-.182.663-.243 1.48-.11 2.041 0 0 .97.077 1.97-.302.072.606.348 1.34.8 1.835.09.097.183.189.285.265.537 0 1.835-.628 2.079-1.014.244.386 1.541 1.014 2.079 1.014.102-.076.195-.168.284-.265.453-.496.729-1.229.8-1.835.45.227.974.317 1.552.317.136 0 .276-.005.418-.015.134-.56.073-1.378-.11-2.04.29.135.612.193.933.193.304 0 .604-.054.876-.141zM43.647 61.632c-.357 0-.578.228-.578.596V84.54c0 2.128.837 3.208 2.488 3.208l4.13.015c2.83 0 4.5.976 5.313 2.186.692-1.128 2.635-2.186 5.313-2.186l4.129-.015c1.65 0 2.488-1.08 2.488-3.208V62.228c0-.368-.222-.596-.578-.596H43.647zm4.034 20.876c-.04.494.534 1.392 1.48 1.111-.03.183.024.681.235 1.055-1.675.38-2.398-1-1.715-2.166zm15.19-7.386a39.26 39.26 0 0 1-.682-.744c-.24-.266-.41-.37-.654-.37-.548 0-1.135.301-1.449.51-.02.008-.036.028-.044.082.333-.03.668-.054 1-.092.292-.033.564-.022.816.166.198.147.31.329.32.567.032.76.637 2.358.675 2.837.047.19-.18.244-.493 1.127-.232.259-.858-.565-.767-.757.364-.477.465-.774.373-1.129a13.844 13.844 0 0 0-.316-1.072c-.138-.369-.448-.507-.833-.375-1.51.502-1.743-.167-3.24.463l1.724 2.671a1.185 1.185 0 0 0-.378-.794c.05-.27.594-.381.798-.129.249.32.735.777 1.136.85.769.143.71 1.313 2.766 1.704-.255.265-.825.175-1.074.056.15.232.323.45.633.53-.32.32-1.233-.43-1.14.325a.785.785 0 0 1 .562-.06c.41.102 1.084 2.438-.334 3.459.302.09.626-.07.932-.07.18 0 .347.175.365.37.132.101.22.226.296.386-.106.035-.312.002-.427-.074.046.13.035.441-.013.447-.128.017-.227-.056-.358-.135-.182.094-.782.056-.952-.096-.452.11-.899.258-1.37.258-.255 0-.59-.016-.579-.328.006-.152.081-.23.14-.396-.217-.224-.578-.008-1.01.034-.584.056-.825-.034-.952-.154.552-.512.219-1.76-.634-1.87.702.674.61 1.763-.175 2.008.227.073.34.176.426.337.276.115.28.316.26.406-.152-.108-.424-.214-.64-.185-.016.095-.056.273-.138.341a.52.52 0 0 1-.263-.175c-.25-.192-1.813.175-1.908-.082-.06-.24.357-.44.742-.525-.99-.364-1.848-2.231-3.37-2.547-.707-.147-1.664.172-1.664 1.093 0 .452.363.8.755.8.362 0 .542-.25.542-.503-.058.044-.094.071-.13.1a.508.508 0 0 1-.706-.029c-.179-.175-.179-.48-.005-.686a.828.828 0 0 1 .545-.302c.596-.087 1.084.104 1.413.584.156.229.243.474.243.711 0 1.061-1.06 1.302-1.648 1.302-1.477 0-2.347-1.06-2.347-2.287 0-.143.007-.288.031-.434.231-1.38 1.461-1.958 2.525-2.13a2.355 2.355 0 0 0-.774-1.187c-.187-.157-.206-.286-.088-.487.16-.275.33-.546.4-.856.017-.07.024-.143.03-.218-.53.476-1.271.912-2.296 1.223-.323.15-.494.446-.535.785-.047.394-.058.794-.065 1.191-.002.092.064.192.115.28.19.328.401.647.448 1.056 0 .198-.995.219-.995.06-.01-.72-.489-1-.437-1.474a6.55 6.55 0 0 0 .041-2.221c-.03-.187.07-.31.202-.41.211-.161.436-.306.647-.466.498-.381.704-.879.587-1.495a1.03 1.03 0 0 0-.085-.233c-.248-.548-.429-1.104-.429-1.722 0-.678-.838-.64-.784.027.018.208.173.5.26.7.86 1.982-.686 3.41-2.285 3.409 1.68-.584-.393-2.74-.393-4.35 0-.986.76-1.715 1.668-1.715 1.047 0 1.71.676 1.901.792.506-.805 2.057-.95 2.64-1.043-.045-.433.016-.818.28-1.151.018-.023.029-.064.02-.088a4.766 4.766 0 0 0-.285-.606c-.478.54-.592 1.256-.592 1.627-1.768-.026-2.548-.802-3.07-1.108.002-.135.472-.983.889-1.543a4.58 4.58 0 0 0-1.109 1.365 4.009 4.009 0 0 0-.778-.457c.398-.855.926-1.52 1.599-2.217-.947.35-1.772 1.425-2.085 2.099-.27-.03-.67-.041-.892.002 1.033-1.265 1.504-3.759 3.774-4.318-.568 2.312.846 3.252 1.82 2.648-.127 0-.214.02-.296 0-1.898-.482-.773-3.117-1.233-3.666-.174-.208-.264-.398-.236-.661a.546.546 0 0 0-.06-.286l-1.01-1.69c-.126-.212.267-.363.351-.265l1.03 1.689c.027.042.06.104.098.111.376.067.493.38.645.656.048.09.086.192.095.292.007.078-.014.185-.065.237-.164.167-.132.33-.005.545.203.346 6.302 10.517 6.302 10.517-1.325.543-3.721.587-4.415.52-.144.352-.37.725-.702 1.084.332-.217.59-.492.827-.79.268.03.67.138 1.08.168a4.793 4.793 0 0 1-1.076 1.471c-.22.218-.494.41-.393.759.113.392.841 1.139 1.107 1.623.263.056.708.15 1.035.28.186.401.816.904 1.575.644-1.526-.02-1.414-1.585-.94-2.413-.05.77.32 1.408.79 1.48-.705-.643-.634-2.105.052-2.907.098 1.302.492 1.987 1.056 2.141-.745-.687-1.193-2.276-.067-3.434.087 2.972 2.805 2.436 3.052 5.876 1.007 0 1.064-1.357.503-1.607-.328-.123-.624-.339-.791-.633-.07-.123-.142-.344-.2-.474-.299-.884-1.143-.828-1.123-1.04.02-.071.153-.104.34-.104l-1.592-2.463-.084-.128c.193-.04.235-.151.038-.462 0 0-5.974-9.946-6.002-10.003.555-.097 1.089.054 1.608.255a.86.86 0 0 1-.276-.494c-.02-.15-.014-.236.106-.331a1.65 1.65 0 0 0 .338-.359c.296-.452.841-.672 1.336-.531.748.213 1.012 1.058.463 1.503-.293.646-.655.564-.73.854.147.067 1.169.858 1.237 1.19-.305.635-.456 1.628-.192 2.181.198-2.638 1.785-3.929 3.33-3.929.367 0 .732.064 1.098.189.2.068.4.165.567.292.24.184.468.393.67.617.303.331.579.686 1.092.709-.15.213-.32.37-.496.524a.606.606 0 0 0-.204.419c-.036.366-.156.702-.426.972a.36.36 0 0 0-.082.129c-.171.498-.345.994-.506 1.496-.04.122-.031.29-.196.288a.725.725 0 0 1-.422-.13c-.227-.184-.308-.452-.227-.734.081-.28 0-.522-.088-.783-.091-.261-.123-.543-.184-.841-.422-.148-1.214.76-.61 1.52.393.56.746 1.593.807 2.016.013.041-.357.275-.867.21-1.723-.221-2.812-1.419-3.144-2.429-.026 1.712 1.393 2.98 3.495 2.857.086.399.412.67.79.682.08-.257.077-.797.013-1.14-.028-.151.05-.229.19-.265.46-.117 1.059-.071 1.57-.254.455-.163.67-.068.952.482.214.415.58.861.925 1.169.145.128.29.259.427.396a.93.93 0 0 1 .279.636c-.045.399.008 1.201.008 1.214-.1.263-.827-.015-.944-.298-.044-.105.31-.845-.062-1.242zm12.541-42.666c-.471 1.761-1.93 3.95-3.16 4.927-.133.138-.046.135.097.097 6.656-1.78 7.812 1.6 7.8 1.713-.014.131.068.184.164.067.136-.166 2.335-2.565.744-4.757-1.59-2.192-5.645-2.047-5.645-2.047zm.228 1.726c.225-.327.45-.918.45-.918.51 0 1.399.169 1.399.78-.61-.118-1.33-.094-1.85.138zm6.223 7.763c.068-.09-.009-.101-.063-.067-.053.035-1.353.801-4.174-1.034-2.821-1.836-5.002-2.607-6.127-2.789 0 0-1.059.754-2.025 1.6 2.634.222 4.699 1.834 4.936 2.39.022.052.077.054.093.004.282-.86-.09-1.578-.09-1.578s1.227.757 3.605 2.148c2.378 1.39 3.462-.165 3.845-.674zm-22.278-9.72c-.664.353-1.683.634-2.37.478.49.915 2.204 1.564 2.994 1.619-.514.594-1.367 1.22-2.07 1.391.316.321 1.849.587 2.963.329-.798 1.204-2.383 2.562-3.6 2.515 1.43 1.093 4.094.72 6.254-1.174.202 1.223-.057 3.041-.276 3.502.915-.204 2.323-1.806 2.842-2.66.764 1.662.752 2.36.752 2.36 1.647-2.238 5.816-3.463 7.345-8.63.145-.488-.02-.77-.463-.77l-7.634-.021c-4.189 0-7.016-.876-8.808-1.757.303 1.19 1.565 2.545 2.07 2.819zm11.9.516c.612 0 .555.368.374.668-.181.3-.75 1.235-.75 1.235s-.593-.635-1.776-1.105c-1.184-.47-1.518-.547-1.518-.798h3.67zM44.1 40.478c-.239.676-.31 1.422-.182 2.392.77 1.672 1.141 4.776.904 6.512 1.226-1.71 1.77-3.634 2.121-5.174.703.72 1.615 1.75 2.252 2.584a36 36 0 0 1 .473-2.825c.916.874 2.816 1.973 4.101 2.362-.865-3.65-2.345-5.977-2.345-5.977-1.256.126-3.28-.18-4.19-1.075.163 1.323 1.073 2.844 1.073 2.844-1.95.19-3.33-.476-4.207-1.643zm21.8 0c-.877 1.167-2.258 1.833-4.207 1.643 0 0 .91-1.521 1.072-2.844-.91.895-2.933 1.201-4.189 1.075 0 0-1.48 2.327-2.346 5.977 1.286-.39 3.186-1.488 4.102-2.362.17.805.363 1.921.473 2.825a31.13 31.13 0 0 1 2.252-2.584c.35 1.54.895 3.463 2.12 5.174-.237-1.736.136-4.84.905-6.512.127-.97.056-1.716-.182-2.392zM49.133 51.98c.736 1.182 1.39 2.605 1.617 3.871.705-.853 1.45-2.337 1.955-4.109.619.774 1.7 2.35 2.295 3.65.595-1.3 1.676-2.876 2.295-3.65.505 1.772 1.25 3.256 1.955 4.11.227-1.267.881-2.69 1.617-3.872.56 2.301 2.717 4.54 4.944 4.709-1.449-1.881-1.508-5.133-1.406-6.216-.965-1.5-1.6-2.854-1.904-3.773-.654.647-1.666 1.904-2.574 3.358 0-.018-.027-1.823-.389-4.014-.936.846-2.631 1.458-3.537 1.696-.572.933-.73 1.66-1.001 2.832-.272-1.171-.43-1.899-1-2.832-.907-.238-2.602-.85-3.539-1.696a29.962 29.962 0 0 0-.388 4.014c-.908-1.454-1.92-2.711-2.575-3.358-.303.92-.939 2.273-1.904 3.773.103 1.083.043 4.335-1.406 6.216 2.228-.169 4.386-2.408 4.945-4.71zM28.954 79.202c1.25-.816 2.041-2.298 2.942-4.11-.525.217-1.284.452-2.045.61-.743 1.436-1.795.88-1.822.675a6.68 6.68 0 0 0 .682-.948 21.077 21.077 0 0 1-.908-2.02c-1.062 2.237-3.014 4.51-4.648 5.396.961 1.337 3.941 1.609 5.8.397zm3.863-3.77c-.886 1.87-.678 4.754 2.145 4.836-.234-2.042.685-3.963 1.669-4.837-.846.208-2.223 1.318-2.223 1.318s-.207.475-.249 1.09c-.59.106-.917-.349-.672-1.298 0 0-.427-.489-.67-1.11zm-13.971 2.136c.412 0 .827-.051 1.234-.151 2.726-.674 5.321-3.005 6.864-4.962-.881.28-1.771.46-2.758.56 0 0-.691.81-1.223 1.108-.27.153-.54.226-.795.226-.77 0-1.098-.633-1.098-.633s1.244-.596 2.035-1.442c-.157-.625-.257-1.489-.275-2.35-2.146 2.155-6.18 4.25-8.996 4.657.557 1.16 2.535 2.987 5.012 2.987zm-5.456-4.573c.14 0 .283-.007.423-.02 2.801-.278 6.182-2.072 8.359-3.625-.693.141-2.516.182-3.38.061-.299.2-1.617 1.034-2.714 1.173-2 .254-2.212-.984-2.212-.984 1.285-.157 2.767-.591 4.183-1.251.142-1.067.389-2.017.6-2.718-3.088 1.72-8.126 2.93-11.114 2.97.598 1.42 2.916 4.394 5.855 4.394zm.44-10.09c.43-.762 1.112-1.663 1.732-2.397-2.465.68-5.64.821-7.321.821-1.984 0-3.912-.14-5.017-.362.098 1.993 1.993 5.431 5.733 5.767.195.018.411.026.642.026 2.333 0 6.044-.944 8.597-1.85-1.82-.234-3.579-.667-3.98-.835-.95.273-3.218.653-3.954.613-1.672-.092-1.851-1.376-1.851-1.376s3.01.127 5.419-.408zm-8.978-3.653c1.39.45 3.605.707 6.08.707 1.51 0 3.102-.135 4.397-.32-1.399-.476-3.125-1.196-4.247-1.91-1.402-.027-3.306-.067-4.528-.442-1.797-.55-1.772-1.78-1.74-2.055 1.554.625 4.198 1.222 6.152 1.339.72-.694 1.833-1.521 3.007-2.241-4.637.04-10.556-1.796-13.882-3.557-.76 6.188 3.442 8.052 4.761 8.48zM15.045 46.42c-.716-1.373-1.414-3.22-1.506-4.812-2.168-1.704-4.644-3.872-6.076-6.351-.828-1.433-.522-2.688.064-3.12.447 1.556 3.36 5.914 5.999 8.1.02-1.397.256-3.003.62-4.212-3.07-3.34-6.51-8.873-7.34-11.04-.934.773-2.544 2.72-2.94 5.462-.398 2.76.496 5.596 2.66 8.429 1.663 2.179 5.326 5.427 8.519 7.544zm-.883 7.02c-2.11-1.399-3.572-2.697-4.351-3.863-1.763-.686-4.043-1.733-5.166-2.676-1.543-1.295-1.054-2.46-.874-2.694 1.358 1.388 4.3 3.388 6.39 4.278 1.305-.51 3.117-.882 4.884-1.1-5.235-2.068-10.853-5.95-13.79-9.611C.66 38.93-1.759 44.37 2.775 48.83c2.389 2.35 7.308 3.97 11.387 4.61zM82.197 73.41c-.21.545-.592 1.428-.908 2.02.195.324.455.696.682.948-.028.204-1.08.761-1.822-.675a12.158 12.158 0 0 1-2.045-.61c.9 1.812 1.691 3.294 2.942 4.11 1.857 1.212 4.837.94 5.799-.397-1.634-.887-3.586-3.16-4.648-5.396zm-5.015 2.022c-.242.621-.67 1.11-.67 1.11.246.95-.08 1.404-.672 1.299-.041-.616-.249-1.091-.249-1.091s-1.376-1.11-2.222-1.318c.983.874 1.903 2.795 1.669 4.837 2.822-.082 3.03-2.966 2.144-4.837zm9.713-3.157c.791.846 2.034 1.442 2.034 1.442s-.327.633-1.098.633c-.255 0-.524-.073-.794-.226-.532-.299-1.223-1.107-1.223-1.107a13.47 13.47 0 0 1-2.758-.56c1.543 1.956 4.138 4.287 6.863 4.96.408.101.823.152 1.235.152 2.476 0 4.455-1.826 5.012-2.987-2.817-.407-6.85-2.502-8.997-4.658-.018.862-.118 1.726-.274 2.35zm5.055-3.925c1.417.66 2.899 1.094 4.184 1.25 0 0-.212 1.239-2.212.985-1.097-.14-2.416-.973-2.714-1.173-.865.12-2.687.08-3.38-.06 2.177 1.552 5.558 3.346 8.359 3.623.14.014.282.02.423.02 2.939 0 5.257-2.973 5.855-4.394-2.989-.04-8.026-1.25-11.114-2.97.21.702.457 1.652.6 2.719zm2.487-7.84c.62.733 1.302 1.634 1.733 2.395 2.41.535 5.418.408 5.418.408s-.178 1.284-1.85 1.376c-.737.04-3.005-.34-3.954-.613-.402.168-2.16.6-3.98.835 2.553.906 6.264 1.85 8.597 1.85.23 0 .446-.008.641-.026 3.74-.336 5.636-3.774 5.734-5.767-1.105.222-3.033.362-5.017.362-1.682 0-4.856-.142-7.322-.82zm15.472-9.736c-3.326 1.761-9.245 3.598-13.882 3.557 1.174.72 2.287 1.547 3.007 2.24 1.954-.116 4.597-.713 6.151-1.338.032.276.058 1.505-1.74 2.055-1.222.375-3.125.415-4.527.443-1.122.713-2.849 1.433-4.248 1.91 1.296.184 2.888.319 4.398.319 2.474 0 4.69-.258 6.08-.707 1.319-.427 5.521-2.29 4.76-8.479zm-7.436-18.636c.586.432.891 1.687.064 3.12-1.433 2.479-3.908 4.647-6.076 6.351-.093 1.592-.79 3.44-1.506 4.812 3.193-2.117 6.856-5.365 8.519-7.544 2.163-2.833 3.058-5.669 2.66-8.43-.396-2.742-2.006-4.688-2.94-5.462-.83 2.168-4.271 7.7-7.34 11.041.364 1.209.6 2.815.62 4.212 2.64-2.186 5.551-6.544 5.999-8.1zm-2.634 16.348c2.09-.89 5.032-2.89 6.39-4.278.18.233.668 1.399-.875 2.694-1.123.943-3.402 1.99-5.165 2.676-.78 1.166-2.242 2.464-4.352 3.864 4.08-.64 8.999-2.261 11.387-4.61 4.534-4.461 2.115-9.9 1.52-11.057-2.936 3.66-8.555 7.543-13.789 9.612 1.766.217 3.58.59 4.884 1.099zm-12.197-6.263c-1.7 3.947-6.01 7.466-8.798 9.228-1.271.803-.807 2.327-.4 3.003 3.798 6.315-3.109 11.021-9.347 7.892 1.361.015 2.735-1.143 2.925-2.174-.432.374-2.204.168-2.727-.316.804-.421.995-.847 1.036-1.246-.994.61-3.002.694-3.594-.337-3.296-.089-5.489-2.663-5.731-3.406-.245.79-.64 2.171-.769 3.534-.894-.606-2.42-1.977-3.216-3.836A14.421 14.421 0 0 0 55 58.83a14.415 14.415 0 0 0-2.021-4.266c-.796 1.86-2.323 3.23-3.216 3.836-.13-1.363-.524-2.744-.769-3.534-.242.743-2.435 3.317-5.731 3.406-.592 1.031-2.6.947-3.594.337.04.399.232.825 1.036 1.246-.524.484-2.295.69-2.728.316.19 1.031 1.565 2.189 2.926 2.174-6.239 3.13-13.145-1.577-9.347-7.892.407-.676.87-2.2-.4-3.003-2.789-1.762-7.099-5.28-8.799-9.228-.202 1.61-.048 5.604 1.68 8.089-1.263.483-2.88 1.266-3.968 1.993.688.783 2.29 2.135 3.366 2.87-.879.782-2.243 2.28-2.958 3.26.906.54 2.734 1.195 4.13 1.637-.645 1.066-1.638 2.99-1.887 4.134 1.563.228 3.16.207 4.568.163-.18 1.334-.062 3.01.08 4.231 1.45-.209 3.046-.798 4.105-1.357.201.922.755 2.622 1.251 3.531 1.377-1.308 3.193-1.906 4.873-1.56 3.442.71 4.465 4.195 4.465 4.195l.005-10.601v-1.184c0-.66.355-1.01.993-1.01h23.88c.637 0 .992.35.992 1.01v1.184l.006 10.601s1.023-3.485 4.464-4.195c1.68-.346 3.497.252 4.873 1.56.497-.91 1.05-2.61 1.251-3.53 1.06.558 2.656 1.147 4.107 1.356.14-1.22.259-2.897.08-4.231 1.392.144 2.993.144 4.567-.163-.249-1.144-1.242-3.068-1.887-4.134 1.452-.39 3.223-1.098 4.13-1.638-.715-.98-2.08-2.477-2.958-3.26 1.076-.734 2.678-2.086 3.366-2.869-1.088-.727-2.706-1.51-3.967-1.993 1.726-2.485 1.88-6.48 1.678-8.089zm-43.401-12.41l-.142.372c4.172 0 8.184-1.43 9.254-6.408h-3.196c-.567 3.587-2.673 6.035-5.916 6.035zM26.2 21.712s2.283.53 3.176 3.745c.894 3.216 3.138 4.754 5.441 4.754l-.141-.438c-1.34-.167-3.23-2.078-3.583-5.617-.356-3.563-1.23-4.022-1.23-4.022-.9-.624-3.168 1.025-3.662 1.578zm-6.675 1.438c1.904-.062 3.185.544 5.577-1.638 2.825-2.577 4.166-2.136 4.166-2.136-1.442-.94-3.452-1.357-4.142-.814-.69.542-1.625 1.998-3.195 3.034-2.213 1.46-4.486 1.075-4.588 2.436h.062s.217-.819 2.12-.882zm1.756 8.543c1.157 1.142 1.264 3.49 1.264 3.49s1.385-2.489.243-5.133c-1.141-2.645-3.475-4.674-1.187-6.218-1.398.012-2.912-.31-3.577.638-.207.296-.399 1.028.298 2.07.885 1.323 3.096 4.402 1.284 6.452 1.325-.245 1.675-1.299 1.675-1.299zm14.293-1.496h7.84s.194-.477.441-1.165h-8.722c.247.688.44 1.165.44 1.165zm4.691-11.147a.767.767 0 0 0-.755-.777.767.767 0 0 0-.756.777c0 .43.338.777.756.777a.766.766 0 0 0 .755-.777zm3.916 9.103c.335-1.053.713-2.654.713-3.426 0-1.412-.759-2.976-3.499-3.457 0 1.707-.828 5.888-1.83 5.888h-.112c-1 0-1.829-4.15-1.829-5.888-2.749.48-3.53 2.044-3.53 3.457 0 .772.378 2.373.713 3.426h9.374zm-4.671-2.166c.521 0 .944-2.73.944-4.09 0-.742-.423-1.229-.944-1.229-.522 0-.945.487-.945 1.23 0 1.359.423 4.089.945 4.089zm-.504-8.749h1.007l-.125-1.294 1.259.13v-1.036l-1.26.13.126-1.295h-1.007l.126 1.294-1.26-.13v1.036l1.26-.13-.126 1.295zm20.836 6.537h-3.196c1.07 4.978 5.081 6.408 9.254 6.408l-.142-.373c-3.243 0-5.349-2.448-5.916-6.035zm15.339 6.436c2.302 0 4.547-1.538 5.44-4.754.893-3.215 3.176-3.745 3.176-3.745-.495-.553-2.761-2.202-3.663-1.578 0 0-.873.46-1.23 4.022-.352 3.539-2.242 5.45-3.582 5.617l-.141.438zm9.715-8.699c2.392 2.182 3.673 1.576 5.577 1.638 1.903.063 2.12.882 2.12.882h.062c-.102-1.36-2.375-.975-4.588-2.436-1.57-1.036-2.505-2.492-3.195-3.034-.69-.543-2.7-.125-4.142.814 0 0 1.341-.441 4.166 2.136zm7.078 2.958c-.665-.948-2.18-.626-3.577-.638 2.288 1.544-.045 3.573-1.188 6.218-1.141 2.644.244 5.132.244 5.132s.107-2.347 1.264-3.489c0 0 .35 1.054 1.675 1.299-1.812-2.05.399-5.129 1.284-6.452.696-1.042.505-1.774.298-2.07zm-17.55 5.727s.194-.477.441-1.165h-8.722c.247.688.44 1.165.44 1.165h7.841zm-3.18-11.147a.767.767 0 0 0-.756-.777.767.767 0 0 0-.756.777c0 .43.339.777.756.777a.766.766 0 0 0 .756-.777zm3.947 9.103c.335-1.053.713-2.654.713-3.426 0-1.413-.782-2.977-3.53-3.457 0 1.738-.829 5.888-1.83 5.888h-.112c-1.001 0-1.83-4.181-1.83-5.888-2.74.481-3.498 2.045-3.498 3.457 0 .772.378 2.373.712 3.426h9.375zm-4.703-2.166c.522 0 .945-2.73.945-4.09 0-.742-.423-1.229-.945-1.229s-.944.487-.944 1.23c0 1.359.422 4.089.944 4.089zm-.503-8.749h1.007l-.126-1.294 1.26.13v-1.036l-1.26.13.126-1.295h-1.007l.125 1.294-1.26-.13v1.036l1.26-.13-.125 1.295zM18.689 48.354c-2.037.049-5.623.456-7.444 1.036 1.238 1.49 4.47 3.632 6.408 4.54-1.507.573-4.209 2.026-5.336 3.075 1.452.9 4.64 1.928 6.148 2.264-.877.714-2.684 2.779-3.347 3.892 1.248.39 3.814.73 5.443.826-.522 1.092-1.117 3.02-1.275 4.275.808.083 3.506-.057 4.842-.358-.114 1.094-.07 3.086.11 3.944 1.318-.19 3.2-.722 4.076-1.061.254.976 1.16 3.077 1.479 3.576 1.056-.204 2.316-.636 3.243-1.123.293.782.958 1.952 1.142 2.247 3.087-3.13 7.495-.591 7.495 2.739-.317 2.194-3.406 2.071-5.032 3.102-2.138 1.356-1.768 4.5-3.969 4.983 2.08 1.319 2.685-1.157 4.845-1.227-.289 1.335-.261 3.705-.045 4.698.889-.688 2.136-1.214 2.951-1.267-.201.779-.358 2.601-.067 3.736.573-.435 2.713-2.301 7.794-1.102.616.146-3.446-.014-2.94 1.3.4 1.036.513 1.756.035 3.227.216.077.466.114.735.114 1.14 0 2.616-.663 3.203-1.704.454.338.454 2.746-1.066 3.344 1.623.119 2.86-1.203 3.099-2.016 0 0 .793 1.892 1.734 2.513.59-.208 1.643-1.19 2.05-2.21.406 1.02 1.459 2.002 2.05 2.21.94-.621 1.734-2.513 1.734-2.513.24.813 1.475 2.135 3.098 2.016-1.519-.598-1.519-3.006-1.066-3.344.587 1.04 2.064 1.704 3.204 1.704.27 0 .52-.037.735-.114-.478-1.471-.365-2.191.034-3.227.507-1.314-3.555-1.154-2.94-1.3 5.08-1.2 7.222.667 7.795 1.102.291-1.135.134-2.957-.067-3.736.815.053 2.062.579 2.95 1.267.217-.993.245-3.363-.044-4.698 2.16.07 2.765 2.546 4.845 1.227-2.201-.483-1.831-3.627-3.97-4.983-1.626-1.031-4.715-.908-5.031-3.102 0-3.33 4.408-5.868 7.495-2.739.183-.295.849-1.465 1.142-2.247.926.487 2.187.92 3.243 1.123.319-.5 1.225-2.6 1.478-3.576.876.34 2.759.871 4.077 1.061.18-.858.224-2.85.11-3.944 1.335.3 4.033.44 4.841.358-.157-1.255-.752-3.183-1.275-4.275 1.63-.096 4.196-.436 5.444-.826-.663-1.113-2.47-3.178-3.347-3.892 1.507-.336 4.695-1.364 6.147-2.264-1.126-1.049-3.829-2.502-5.335-3.074 1.937-.91 5.17-3.05 6.408-4.541-1.822-.58-5.408-.987-7.444-1.036 4.215-2.885 4.345-9.141 3.131-12.54-.816 2.06-3.522 5.446-5.27 7.272.156 1.737-.408 4.82-1.374 6.7 1.384.526 3.024 1.319 4.185 2.203-.77.97-2.43 2.476-3.47 3.292.88.921 2.362 2.613 3.021 3.59-.975.731-3.096 1.57-4.184 1.954.535 1.098 1.313 3.101 1.514 4.484-1.239.205-2.944.343-4.727.322.087 1.324-.1 3.374-.33 4.601-1.653-.132-3.604-.81-4.473-1.247-.46 1.83-1.597 3.605-1.647 3.7-5.168-5.635-9.749-.32-9.749 4.647V84.1c0 3.201-1.008 4.663-3.91 4.663h-3.755c-2.337 0-4.296.992-5.273 2.898-.977-1.906-2.936-2.898-5.274-2.898h-3.755c-2.901 0-3.91-1.462-3.91-4.663v-6.768c0-4.966-4.58-10.282-9.748-4.647-.05-.095-1.187-1.87-1.647-3.7-.87.437-2.82 1.115-4.473 1.247-.231-1.227-.417-3.277-.33-4.601-1.783.021-3.488-.117-4.727-.322.201-1.383.978-3.386 1.514-4.484-1.088-.385-3.21-1.223-4.185-1.953.66-.978 2.14-2.67 3.021-3.59-1.04-.817-2.699-2.323-3.47-3.293 1.162-.884 2.802-1.677 4.186-2.203-.967-1.88-1.53-4.963-1.375-6.7-1.747-1.826-4.453-5.212-5.27-7.273-1.214 3.4-1.084 9.656 3.132 12.54zM7.056 80.668l-.38.406s.789 1.03 1.425.638c.362-.669-.663-1.448-.663-1.448l-.382.404z" fill="#000" fill-rule="evenodd"/>
</svg>