<svg width="29" height="30" viewBox="0 0 29 30" xmlns="http://www.w3.org/2000/svg">
  <path d="M19.846 9.883c-.453-.397-1.105-.388-1.48-.273.246-.3.817-.547.985-.577.128.048.495.425.495.85zm1.448-1.646c-.298-1.595-4.005-.538-5.872-1.215-.036.465.575 1.21 1.159 1.485-.998.867-1.894 2.612-2.075 4.744-.18-2.132-1.077-3.877-2.075-4.744.584-.275 1.195-1.02 1.159-1.485-1.867.677-5.573-.38-5.872 1.215-.063.338.1.852.275 1 .031-.107.195-.457.712-.535 2.611-.395 4.792 3.63 2.823 5.257-.03.025-.013.07.028.07h5.9c.04 0 .058-.045.028-.07-1.969-1.627.212-5.652 2.823-5.257.517.078.68.428.712.535.176-.148.338-.662.275-1zm.635-3.66c-.047-.15 1.484-.155 1.484.804 0 .642-.916.946-.916 1.613 0 .31.334.538.437.538-.236-1.07.74-.51 1.003-.31-.524-1.44.655-1.43.539-2.09-.081-.461-1.105-.322-1.476-.555-.658-.414-1.436-2.025-1.949-.414.956.887.4 2.194-.814 2.194 0 0-.007.191.005.207 1.447-.071 1.952-1.135 1.687-1.987zM5.04 7.222c.264-.2 1.239-.76 1.004.31.102 0 .436-.228.436-.538 0-.667-.916-.971-.916-1.613 0-.959 1.53-.955 1.484-.804-.264.852.24 1.916 1.688 1.987.01-.016.004-.207.004-.207-1.214 0-1.77-1.307-.814-2.194-.513-1.611-1.291 0-1.95.414-.37.233-1.394.094-1.475.555-.115.66 1.063.65.54 2.09zm4.11 2.661c.454-.397 1.106-.388 1.48-.273-.244-.3-.816-.547-.984-.577-.128.048-.496.425-.496.85zM15.195.961l-.707-.86-.706.86.706.906.707-.906zm4.03 2.604l-.502-.612-.501.612.501.598.503-.598zM23.3 21.25l-.637-.674-.636.674.636.59.637-.59zM10.756 3.565l-.503-.612-.501.612.501.598.503-.598zM9.317 6.564h1.873c1.575 0 2.283-.967 2.498-1.805h1.602c.214.838.922 1.805 2.497 1.805h1.873s.328-.445.41-.665c.296-.792-.082-1.162-.634-1.162l-.713.647-.713-.647c-.551 0-.929.37-.633 1.162.038.101.128.25.213.38-.664-.09-1.512-.546-1.698-1.52 0 0 .49-.78.614-1.096.443-1.135-.123-1.6-.95-1.6L14.488 3.32l-1.067-1.255c-.827 0-1.393.464-.95 1.599.123.316.615 1.096.615 1.096-.187.974-1.035 1.43-1.7 1.52.086-.13.176-.279.214-.38.295-.792-.082-1.162-.634-1.162l-.713.647-.712-.647c-.552 0-.93.37-.634 1.162.082.22.41.665.41.665zm19.364 5.805c-.362.183-2.482 1.177-5.2.81.03-.13.052-.261.072-.392 1.808-.216 3.278-.523 4.215-1.044 1.068-.594 1.535-2.013.996-3.068-.014-.027-.053-.032-.072-.01-.296.34-2.153 2.36-5.078 2.989a5.404 5.404 0 0 0-.042-.453c1.421-.806 2.808-1.735 3.469-2.584.999-1.283.907-2.92-.043-3.755a.045.045 0 0 0-.068.009c-.3.496-3.114 5.044-6.204 7.008-.03.02-.072.045-.114.07a.146.146 0 0 0-.022.238c.356.322.577.772.577 1.27 0 .868-.668 1.589-1.552 1.745-.449.087-1.097.062-1.72-.144-.028-.009-.057.01-.057.038v2.746c0 .044.068.055.084.013.378-1.003 1.51-1.216 2.006-1.216.179 1.072.497 1.96.91 2.437.675.777 1.775.766 2.252.229a.039.039 0 0 0-.01-.06c-.281-.161-1.885-1.146-2.206-2.76.127-.043.25-.092.369-.15.518.856 1.271 1.619 1.878 1.91 1.019.489 1.951.251 2.365-.464.015-.025-.003-.057-.034-.06-.63-.05-2.564-.604-3.388-1.955a3.96 3.96 0 0 0 .273-.273c.862.656 2.08 1.236 2.952 1.355 1.021.138 2.178-.187 2.206-1.374 0-.024-.02-.044-.046-.042-.363.022-2.766.126-4.478-.856a5.42 5.42 0 0 0 .167-.346s2.586.612 3.812.41c1.218-.202 1.932-1.11 1.794-2.24-.004-.027-.037-.044-.063-.03zM5.839 14.23c.052.118.107.233.167.346-1.712.982-4.113.878-4.478.856-.025-.002-.047.019-.046.042.028 1.187 1.185 1.512 2.205 1.374.872-.119 2.091-.699 2.953-1.355.087.096.178.186.273.273-.824 1.35-2.758 1.905-3.389 1.955-.03.003-.048.035-.033.06.413.715 1.346.953 2.366.464.606-.291 1.36-1.054 1.877-1.91.119.058.242.107.369.15-.321 1.614-1.925 2.599-2.205 2.76a.04.04 0 0 0-.011.06c.477.537 1.578.548 2.251-.229.414-.477.732-1.365.91-2.437.496 0 1.629.213 2.007 1.216.017.042.084.031.084-.013v-2.746c0-.028-.03-.047-.058-.038-.622.206-1.27.231-1.719.144-.884-.156-1.552-.877-1.552-1.745 0-.498.222-.948.577-1.27a.145.145 0 0 0-.022-.238 5.396 5.396 0 0 1-.115-.07C5.162 9.916 2.35 5.37 2.047 4.872a.046.046 0 0 0-.069-.01c-.948.835-1.04 2.472-.042 3.755.66.85 2.048 1.778 3.468 2.584-.02.15-.034.3-.04.453C2.44 11.026.583 9.009.285 8.667c-.02-.023-.06-.018-.073.008-.538 1.056-.07 2.474.996 3.068.937.521 2.406.828 4.214 1.044.02.13.043.262.072.391-2.714.367-4.834-.624-5.198-.808-.027-.014-.06.003-.064.032-.137 1.13.576 2.036 1.794 2.237 1.225.203 3.812-.409 3.812-.409zm16.823 8.48l-.942-.742c-.376.224-.653.58-.76.996-.567.08-2.113-.264-1.963-.491 1.695-2.383.399-3.802-1.159-3.723v1.6c0 .514-.448.93-1 .93h-1.076c-.771 0-1.274.776-1.274.776s-.502-.775-1.273-.775h-1.076c-.553 0-1-.417-1-.93v-1.6c-1.557-.08-2.854 1.339-1.16 3.722.15.225-1.44.586-2.185.495a1.102 1.102 0 0 0-.796-.332c-.14 0-.273.025-.395.07 0 0-2.929-2.772-2.982-2.8l.024-.055c.167-.312-.089-.652-.25-.628.187-.225.196-1.21-.844-1.437.03.197.046.601.046.601s-.803-.434-1.206-.06c-.354.42.137 1.18.137 1.18s-.41.01-.613-.007c.298 1.007 1.296.936 1.512.737-.014.16.347.389.653.206l.135-.066c.023.032 2.875 2.727 2.875 2.727a.937.937 0 0 0-.15.687c.068.398.399.727.822.813.299.06.58.002.805-.13l.755.7c.067.062.158.1.26.093.184-.013.322-.163.308-.334a.296.296 0 0 0-.1-.195c-.012-.013-.77-.716-.77-.716.625-.437 1.789-.746 2.754-.746.17 0 .25-.144.191-.284-.437-1.052.504-1.814 1.476-1.194.425.27.856.803 1.18 1.692-1.596.387-3.6 1.452-4.006 2.614-.156.45.36 1.06.986 1.184a.042.042 0 0 0 .051-.033c.327-1.735 2.194-3.028 3.165-3.248l.081.219c-1.057.5-2.083 1.555-2.376 2.81-.134.573.506 1.091 1.035 1.233.027.007.053-.012.054-.037.1-1.586.801-2.933 1.428-3.546.017.118.03.239.039.361 0 0-.642 1.79-.642 3.096 0 .607.903 1.031 1.036 1.09.167-.059 1.07-.483 1.07-1.09 0-1.306-.643-3.096-.643-3.096a5.09 5.09 0 0 1 .039-.36c.627.612 1.328 1.958 1.428 3.544a.043.043 0 0 0 .054.038c.529-.142 1.169-.66 1.035-1.234-.293-1.254-1.318-2.309-2.376-2.81l.081-.218c.972.22 2.837 1.513 3.165 3.248a.043.043 0 0 0 .05.033c.626-.123 1.143-.735.986-1.184-.405-1.162-2.41-2.227-4.006-2.614.325-.889.756-1.421 1.18-1.692.973-.62 1.914.142 1.476 1.194-.058.14.021.284.191.284 1.093 0 2.438.395 2.97.924.341.51.97.837 1.68.767.806-.079 1.463-.684 1.554-1.433.08-.656-.26-1.245-.801-1.566l-.943.741zm-6.947-4.78c.336-.124.862-.024.844.461-.004.11.15.11.161-.002.101-.726-.39-.935-.903-.85-.064-.25-.116-.468-.175-.684-.048-.175-.065-.504.137-.504.11 0 .066.306.055.438-.009.115.033.185.127.188.058.003.131-.072.175-.121.293-.333.362-.847.017-1.095-.288-.208-1.009-.053-1.207.243-.03-.112-.173-.296-.242-.376-.066-.079-.084-.132.009-.201.043-.034.175-.164.175-.3 0-.08-.062-.227-.259-.227-.155 0-.328.108-.328.347 0 .054.013.11.048.172a1.751 1.751 0 0 0-.502.024l1.892 5.19c.541-.267.938-.69.938-1.144 0-.387-.57-.259-.847.043-.089-.49-.168-.943-.255-1.395-.023-.125.04-.17.14-.207zm-2.674-3.526l.397 1.104c-.34.081-.887.33-.887.658 0 .437.774.722 1.221.688-.022.1.003.188.073.27-.162 0-.469.075-.57.184-.237-.221-.608-.302-.784-.167-.178.135-.183.365.002.625.13.18.178.357.033.565.539 0 .34-.701.552-.701a.887.887 0 0 0 .05.467c.04.116.04.199-.029.31-.174.279-.444.917-.408 1.495-.177 0-.266-.044-.204-.286.023-.09-.032-.154-.106-.043a.928.928 0 0 0-.12.42c0 .515.613.618.847.51.676.654 2.005.48 2.45.26l-2.34-6.421c-.048-.122-.22-.064-.177.062zm-.081 5.29c-.049-.264.32-.737.787-1.193-.1.297-.038.81.158.986-.34 0-.743.063-.945.207z" fill="#000" fill-rule="evenodd"/>
</svg>